<?xml version="1.0" ?><svg enable-background="new 0 0 64 64" version="1.1" viewBox="0 0 64 64" xml:space="preserve" xmlns="http://www.w3.org/2000/svg" xmlns:xlink="http://www.w3.org/1999/xlink"><g id="Glyph"><path d="M32,14c-7.031,0-11.229,4.395-11.229,11.756c0,4.189,5.566,13.867,11.227,21.594c5.627-7.753,11.231-17.311,11.231-21.594   C43.229,18.395,39.031,14,32,14z M31.988,30.793c-2.724,0-4.932-2.208-4.932-4.932c0-2.724,2.208-4.932,4.932-4.932   c2.724,0,4.932,2.208,4.932,4.932C36.92,28.585,34.712,30.793,31.988,30.793z"/><path d="M32,0C14.327,0,0,14.327,0,32s14.327,32,32,32c17.673,0,32-14.327,32-32S49.673,0,32,0z M33.874,51.54L32,54l-1.863-2.46   c-1.371-1.792-13.366-17.806-13.366-25.784C16.771,16.185,22.745,10,32,10c9.255,0,15.229,6.185,15.229,15.756   C47.229,33.722,35.233,49.736,33.874,51.54z"/></g></svg>