<?xml version="1.0" encoding="utf-8"?>
<!-- Generator: Adobe Illustrator 27.8.1, SVG Export Plug-In . SVG Version: 6.00 Build 0)  -->
<svg version="1.1" id="Layer_1" xmlns="http://www.w3.org/2000/svg" xmlns:xlink="http://www.w3.org/1999/xlink" x="0px" y="0px"
	 viewBox="0 0 841.89 595.28" style="enable-background:new 0 0 841.89 595.28;" xml:space="preserve">
<style type="text/css">
	.st0{font-family:'Nasalization';}
	.st1{font-size:85.2357px;}
</style>
<g>
	<g>
		<path d="M241.73,239.47c0,10.24,0,20.17,0,30.37c-0.94,0-1.75,0-2.55,0c-10.19,0-20.37,0.12-30.56-0.03
			c-20.29-0.3-34.6-9.86-43.01-28.29c-0.12-0.26-0.25-0.53-0.6-1.28c-1.54,20.34-11.51,34.19-30.03,42.18
			c18.75,8.15,28.85,22.22,29.97,42.84c-10.23,0-20.15,0-30.35,0c-0.04-0.62-0.13-1.33-0.13-2.05c-0.01-22.56-0.04-45.11-0.01-67.67
			c0.01-9.71,6.5-16.05,16.27-16.05c29.58-0.01,59.15-0.01,88.73-0.01C240.12,239.47,240.79,239.47,241.73,239.47z"/>
	</g>
	<text transform="matrix(1 0 0 1 179.2282 342.528)" class="st0 st1">CONTRACTOR</text>
</g>
</svg>
